<svg width="48" height="21" viewBox="0 0 48 21" fill="none" xmlns="http://www.w3.org/2000/svg">
<path d="M31.0933 12.4702V6.07959H29.7339C28.187 8.87646 26.3901 11.0796 24.687 12.9546V14.2358H29.0933V16.5483H31.0933V14.2358H32.5151V12.4702H31.0933ZM29.0933 12.4702H27.312C27.9526 11.7046 28.4683 10.9546 29.0933 10.0171V12.4702ZM35.2339 14.3296C34.5464 14.3296 33.9839 14.8921 33.9839 15.5796C33.9839 16.2671 34.5464 16.8452 35.2339 16.8452C35.9214 16.8452 36.4839 16.2671 36.4839 15.5796C36.4839 14.8921 35.9214 14.3296 35.2339 14.3296ZM45.7808 6.07959H38.3589V8.01709H43.0151C41.437 10.689 39.6245 13.4702 39.6245 16.5483H42.1245C42.1245 13.064 43.562 10.7046 45.7808 6.97021V6.07959Z" fill="#181C2E"/>
<path d="M9.90292 1.13855C9.96252 0.953735 10.224 0.953734 10.2836 1.13855L12.282 7.33514C12.3087 7.41791 12.3859 7.47395 12.4728 7.47376L18.9837 7.45953C19.1779 7.4591 19.2587 7.70779 19.1013 7.82158L13.8256 11.6371C13.7551 11.688 13.7256 11.7787 13.7527 11.8613L15.7782 18.0491C15.8386 18.2337 15.6271 18.3874 15.4702 18.2729L10.2112 14.4344C10.1409 14.3831 10.0456 14.3831 9.97535 14.4344L4.71632 18.2729C4.55947 18.3874 4.34792 18.2337 4.40833 18.0491L6.43383 11.8613C6.46089 11.7787 6.43143 11.688 6.36096 11.6371L1.0852 7.82158C0.927848 7.70779 1.00865 7.4591 1.20284 7.45953L7.7137 7.47376C7.80067 7.47395 7.87779 7.41791 7.90448 7.33514L9.90292 1.13855Z" stroke="#FF7622" stroke-width="2"/>
</svg>
