<svg width="62" height="17" viewBox="0 0 62 17" fill="none" xmlns="http://www.w3.org/2000/svg">
<path d="M38.6719 8.06445V9.22656H34.7344V13H33.5039V3.83984H39.4922V5.00195H34.7344V8.06445H38.6719ZM42.9648 6.16406V7.53125C43.2292 7.07552 43.5482 6.71094 43.9219 6.4375C44.2956 6.16406 44.6784 6.02734 45.0703 6.02734C45.3346 6.02734 45.5716 6.07292 45.7812 6.16406V7.46289C45.4896 7.28971 45.1979 7.20312 44.9062 7.20312C44.4414 7.20312 44.0632 7.36719 43.7715 7.69531C43.4889 8.02344 43.2201 8.41536 42.9648 8.87109V13H41.8438V6.16406H42.9648ZM50.0332 6.02734C50.735 6.02734 51.3184 6.17318 51.7832 6.46484C52.248 6.75651 52.5944 7.15299 52.8223 7.6543C53.0592 8.1556 53.1777 8.7207 53.1777 9.34961V10.0195H47.9277C47.9824 10.4023 48.1146 10.7533 48.3242 11.0723C48.5339 11.3913 48.8073 11.6465 49.1445 11.8379C49.4818 12.0202 49.8691 12.1113 50.3066 12.1113C50.7988 12.1113 51.2591 11.9883 51.6875 11.7422C52.1159 11.487 52.4759 11.209 52.7676 10.9082L52.7539 12.125C52.6263 12.2799 52.4349 12.444 52.1797 12.6172C51.9336 12.7812 51.6465 12.918 51.3184 13.0273C50.9993 13.1458 50.6621 13.2051 50.3066 13.2051C49.6139 13.2051 48.9987 13.041 48.4609 12.7129C47.9232 12.3848 47.4993 11.9518 47.1895 11.4141C46.8887 10.8672 46.7383 10.2702 46.7383 9.62305C46.7383 8.97591 46.8796 8.37891 47.1621 7.83203C47.4447 7.28516 47.832 6.84766 48.3242 6.51953C48.8255 6.19141 49.3952 6.02734 50.0332 6.02734ZM50.0332 7.12109C49.4681 7.12109 49.0033 7.3125 48.6387 7.69531C48.2741 8.06901 48.0462 8.52474 47.9551 9.0625H52.0703C52.0247 8.61589 51.8971 8.2513 51.6875 7.96875C51.487 7.6862 51.2409 7.47656 50.9492 7.33984C50.6576 7.19401 50.3522 7.12109 50.0332 7.12109ZM57.8398 6.02734C58.5417 6.02734 59.125 6.17318 59.5898 6.46484C60.0547 6.75651 60.401 7.15299 60.6289 7.6543C60.8659 8.1556 60.9844 8.7207 60.9844 9.34961V10.0195H55.7344C55.7891 10.4023 55.9212 10.7533 56.1309 11.0723C56.3405 11.3913 56.6139 11.6465 56.9512 11.8379C57.2884 12.0202 57.6758 12.1113 58.1133 12.1113C58.6055 12.1113 59.0658 11.9883 59.4941 11.7422C59.9225 11.487 60.2826 11.209 60.5742 10.9082L60.5605 12.125C60.4329 12.2799 60.2415 12.444 59.9863 12.6172C59.7402 12.7812 59.4531 12.918 59.125 13.0273C58.806 13.1458 58.4688 13.2051 58.1133 13.2051C57.4206 13.2051 56.8053 13.041 56.2676 12.7129C55.7298 12.3848 55.306 11.9518 54.9961 11.4141C54.6953 10.8672 54.5449 10.2702 54.5449 9.62305C54.5449 8.97591 54.6862 8.37891 54.9688 7.83203C55.2513 7.28516 55.6387 6.84766 56.1309 6.51953C56.6322 6.19141 57.2018 6.02734 57.8398 6.02734ZM57.8398 7.12109C57.2747 7.12109 56.8099 7.3125 56.4453 7.69531C56.0807 8.06901 55.8529 8.52474 55.7617 9.0625H59.877C59.8314 8.61589 59.7038 8.2513 59.4941 7.96875C59.2936 7.6862 59.0475 7.47656 58.7559 7.33984C58.4642 7.19401 58.1589 7.12109 57.8398 7.12109Z" fill="#181C2E"/>
<path d="M0 1V3H14V7V9V12H8.2207C7.67163 11.3907 6.88492 11 6 11C5.11508 11 4.32837 11.3907 3.7793 12H3V11L5 9H1V14H3C3 15.657 4.343 17 6 17C7.657 17 9 15.657 9 14H15C15 15.657 16.343 17 18 17C19.657 17 21 15.657 21 14H22H23V9L20.2754 3.55273C20.1064 3.21373 19.7618 3 19.3828 3H16V1H0ZM1 5V7H8V5H1ZM16 5H18.7637L19.7637 7H16V5ZM16 9H20.7637L21 9.47266V12H20.2207C19.6716 11.3907 18.8849 11 18 11C17.2279 11 16.5316 11.3002 16 11.7793V9ZM6 12.75C6.689 12.75 7.25 13.311 7.25 14C7.25 14.689 6.689 15.25 6 15.25C5.311 15.25 4.75 14.689 4.75 14C4.75 13.311 5.311 12.75 6 12.75ZM18 12.75C18.689 12.75 19.25 13.311 19.25 14C19.25 14.689 18.689 15.25 18 15.25C17.311 15.25 16.75 14.689 16.75 14C16.75 13.311 17.311 12.75 18 12.75Z" fill="#FF7622"/>
</svg>
