<svg width="75" height="22" viewBox="0 0 75 22" fill="none" xmlns="http://www.w3.org/2000/svg">
<path d="M33.5 6.63477C34.1016 6.63477 34.6302 6.74414 35.0859 6.96289C35.5417 7.18164 35.8971 7.49609 36.1523 7.90625C36.4076 8.30729 36.5352 8.78581 36.5352 9.3418C36.5352 9.93424 36.3848 10.4993 36.084 11.0371C35.7832 11.5658 35.3548 12.1309 34.7988 12.7324C34.252 13.334 33.6003 14.0449 32.8438 14.8652H36.6035V16H30.8613V15.5078C31.791 14.4688 32.5931 13.5892 33.2676 12.8691C33.9421 12.14 34.4616 11.5156 34.8262 10.9961C35.1908 10.4766 35.373 10.0163 35.373 9.61523C35.373 9.02279 35.1771 8.58073 34.7852 8.28906C34.4023 7.98828 33.9375 7.83789 33.3906 7.83789C32.944 7.83789 32.5202 7.95182 32.1191 8.17969C31.7272 8.39844 31.3991 8.6263 31.1348 8.86328V7.57812C31.3717 7.35938 31.6953 7.14974 32.1055 6.94922C32.5156 6.73958 32.9805 6.63477 33.5 6.63477ZM41.3203 6.63477C41.9128 6.63477 42.4232 6.77148 42.8516 7.04492C43.2891 7.31836 43.6491 7.6875 43.9316 8.15234C44.2142 8.60807 44.4238 9.11849 44.5605 9.68359C44.7064 10.2487 44.7793 10.8275 44.7793 11.4199C44.7793 12.0033 44.7064 12.582 44.5605 13.1562C44.4238 13.7214 44.2142 14.2363 43.9316 14.7012C43.6491 15.1569 43.2891 15.5215 42.8516 15.7949C42.4232 16.0684 41.9128 16.2051 41.3203 16.2051C40.737 16.2051 40.2266 16.0684 39.7891 15.7949C39.3516 15.5215 38.9915 15.1569 38.709 14.7012C38.4264 14.2363 38.2122 13.7214 38.0664 13.1562C37.9297 12.582 37.8613 12.0033 37.8613 11.4199C37.8613 10.8275 37.9297 10.2487 38.0664 9.68359C38.2122 9.11849 38.4264 8.60807 38.709 8.15234C38.9915 7.6875 39.3516 7.31836 39.7891 7.04492C40.2266 6.77148 40.737 6.63477 41.3203 6.63477ZM41.3203 7.83789C40.9466 7.83789 40.6139 7.94271 40.3223 8.15234C40.0397 8.35286 39.8027 8.6263 39.6113 8.97266C39.4199 9.3099 39.2741 9.69271 39.1738 10.1211C39.0736 10.5404 39.0234 10.9733 39.0234 11.4199C39.0234 11.8665 39.0736 12.304 39.1738 12.7324C39.2741 13.1517 39.4199 13.5345 39.6113 13.8809C39.8027 14.2181 40.0397 14.4915 40.3223 14.7012C40.6139 14.9017 40.9466 15.002 41.3203 15.002C41.694 15.002 42.0221 14.9017 42.3047 14.7012C42.5964 14.4915 42.8379 14.2181 43.0293 13.8809C43.2207 13.5345 43.3665 13.1517 43.4668 12.7324C43.5671 12.304 43.6172 11.8665 43.6172 11.4199C43.6172 10.9733 43.5671 10.5404 43.4668 10.1211C43.3665 9.69271 43.2207 9.3099 43.0293 8.97266C42.8379 8.6263 42.5964 8.35286 42.3047 8.15234C42.0221 7.94271 41.694 7.83789 41.3203 7.83789ZM51.4238 9.16406V10.0391C51.6426 9.79297 51.9206 9.5651 52.2578 9.35547C52.6042 9.13672 53.0098 9.02734 53.4746 9.02734C53.9668 9.02734 54.4271 9.14583 54.8555 9.38281C55.2839 9.61068 55.612 9.95703 55.8398 10.4219C56.1589 10.0391 56.5052 9.71094 56.8789 9.4375C57.2526 9.16406 57.6901 9.02734 58.1914 9.02734C58.6562 9.02734 59.0892 9.13216 59.4902 9.3418C59.9004 9.54232 60.2285 9.85221 60.4746 10.2715C60.7298 10.6816 60.8574 11.2012 60.8574 11.8301V16H59.7363L59.7227 11.9395C59.7227 11.347 59.5677 10.8958 59.2578 10.5859C58.957 10.276 58.5378 10.1211 58 10.1211C57.6081 10.1211 57.2663 10.2441 56.9746 10.4902C56.6829 10.7363 56.4049 11.0234 56.1406 11.3516V16H55.0195L55.0059 11.9395C55.0059 11.347 54.8509 10.8958 54.541 10.5859C54.2402 10.276 53.821 10.1211 53.2832 10.1211C52.9095 10.1211 52.5677 10.2305 52.2578 10.4492C51.957 10.668 51.679 10.9323 51.4238 11.2422V16H50.3027V9.16406H51.4238ZM64.0703 5.88281C64.3346 5.88281 64.5534 5.97852 64.7266 6.16992C64.9089 6.35221 65 6.56641 65 6.8125C65 7.04948 64.9089 7.26367 64.7266 7.45508C64.5534 7.64648 64.3346 7.74219 64.0703 7.74219C63.806 7.74219 63.5827 7.64648 63.4004 7.45508C63.2272 7.26367 63.1406 7.04948 63.1406 6.8125C63.1406 6.56641 63.2272 6.35221 63.4004 6.16992C63.5827 5.97852 63.806 5.88281 64.0703 5.88281ZM64.7676 9.16406V16H63.6465V10.2168H62.5664V9.16406H64.7676ZM68.3086 9.16406V10.2441C68.4544 10.0618 68.6413 9.87956 68.8691 9.69727C69.097 9.50586 69.3522 9.34635 69.6348 9.21875C69.9264 9.09115 70.2272 9.02734 70.5371 9.02734C71.002 9.02734 71.4258 9.13216 71.8086 9.3418C72.1914 9.54232 72.4967 9.85221 72.7246 10.2715C72.9525 10.6816 73.0664 11.2012 73.0664 11.8301V16H71.9453L71.9316 11.9395C71.9316 11.347 71.7995 10.8958 71.5352 10.5859C71.2799 10.276 70.8835 10.1211 70.3457 10.1211C69.9811 10.1211 69.6165 10.2578 69.252 10.5312C68.8965 10.7956 68.582 11.1055 68.3086 11.4609V16H67.1875V9.16406H68.3086Z" fill="#181C2E"/>
<path d="M11 21C16.5228 21 21 16.5228 21 11C21 5.47715 16.5228 1 11 1C5.47715 1 1 5.47715 1 11C1 16.5228 5.47715 21 11 21Z" stroke="#FF7622" stroke-width="2" stroke-linecap="round" stroke-linejoin="round"/>
<path d="M11 5V11L15 13" stroke="#FF7622" stroke-width="2" stroke-linecap="round" stroke-linejoin="round"/>
</svg>
