<svg width="16" height="15" viewBox="0 0 16 15" fill="none" xmlns="http://www.w3.org/2000/svg">
<path d="M7.52523 1.13855C7.58483 0.953734 7.84632 0.953734 7.90592 1.13855L9.34596 5.60371C9.37265 5.68648 9.44977 5.74251 9.53674 5.74232L14.2284 5.73207C14.4225 5.73164 14.5033 5.98033 14.346 6.09413L10.5444 8.84349C10.4739 8.89446 10.4444 8.98512 10.4715 9.06777L11.931 13.5266C11.9915 13.7111 11.7799 13.8648 11.6231 13.7504L7.83349 10.9844C7.76324 10.9331 7.66791 10.9331 7.59767 10.9844L3.8081 13.7504C3.65124 13.8648 3.4397 13.7111 3.50011 13.5266L4.95965 9.06777C4.98671 8.98512 4.95725 8.89446 4.88678 8.84349L1.08516 6.09413C0.927803 5.98033 1.00861 5.73164 1.2028 5.73207L5.89441 5.74232C5.98138 5.74251 6.0585 5.68648 6.08519 5.60371L7.52523 1.13855Z" stroke="#FF7622" stroke-width="2"/>
</svg>
