<svg width="17" height="15" viewBox="0 0 17 15" fill="none" xmlns="http://www.w3.org/2000/svg">
<path d="M14.5934 1.89929C14.2268 1.53493 13.7917 1.2459 13.3127 1.0487C12.8337 0.851499 12.3204 0.75 11.8019 0.75C11.2835 0.75 10.7701 0.851499 10.2911 1.0487C9.81215 1.2459 9.37698 1.53493 9.01046 1.89929L8.24981 2.65512L7.48916 1.89929C6.74882 1.16366 5.7447 0.750381 4.69771 0.750381C3.65071 0.750381 2.64659 1.16366 1.90626 1.89929C1.16592 2.63493 0.75 3.63267 0.75 4.67302C0.75 5.71336 1.16592 6.7111 1.90626 7.44674L2.66691 8.20256L8.24981 13.75L13.8327 8.20256L14.5934 7.44674C14.96 7.08255 15.2509 6.65014 15.4494 6.17422C15.6479 5.69829 15.75 5.18818 15.75 4.67302C15.75 4.15785 15.6479 3.64774 15.4494 3.17182C15.2509 2.69589 14.96 2.26348 14.5934 1.89929Z" fill="#FF8400" stroke="#FFBF6D" stroke-width="1.5" stroke-linecap="round" stroke-linejoin="round"/>
</svg>
